# xmcd
#
# Track frame offsets: 
#        150
#        14562
#        25985
#        43602
#        58205
#        72500
#        85917
#        105125
#        118820
#        135115
#
# Disc length: 1980 seconds
#
# Revision: 3
# Processed by: cddbd v1.4PL0 Copyright (c) Steve Scherf et al.
# Submitted via: ExactAudioCopy v0.90b4
#
DISCID=8107ba0a
DTITLE=John Michael Montgomery - John Michael Montgomery
DYEAR=1995
DGENRE=Country
TTITLE0=Cowboy Love
TTITLE1=Sold (The Grundy County Auction Incident)
TTITLE2=I Can Love You Like That
TTITLE3=High School Heart
TTITLE4=Just Like A Rodeo
TTITLE5=Holdin' On To Something
TTITLE6=Long As I Live
TTITLE7=No Man's Land
TTITLE8=Heaven Sent Me You
TTITLE9=It's What I Am
EXTD=
EXTT0=
EXTT1=
EXTT2=
EXTT3=
EXTT4=
EXTT5=
EXTT6=
EXTT7=
EXTT8=
EXTT9=
PLAYORDER=
